<mxfile host="app.diagrams.net" modified="2021-06-17T07:25:12.539Z" agent="5.0 (Windows NT 10.0; Win64; x64) AppleWebKit/537.36 (KHTML, like Gecko) Chrome/77.0.3865.90 Safari/537.36" etag="ACL-hEwq-tXkcvHiRbzR" version="14.7.10" type="github" pages="2">
  <diagram id="kgpKYQtTHZ0yAKxKKP6v" name="Page-1">
    <mxGraphModel dx="1422" dy="804" grid="1" gridSize="10" guides="1" tooltips="1" connect="1" arrows="1" fold="1" page="1" pageScale="1" pageWidth="850" pageHeight="1100" math="0" shadow="0">
      <root>
        <mxCell id="0" />
        <mxCell id="1" parent="0" />
        <mxCell id="3nuBFxr9cyL0pnOWT2aG-1" value=":Object" style="shape=umlLifeline;perimeter=lifelinePerimeter;container=1;collapsible=0;recursiveResize=0;rounded=0;shadow=0;strokeWidth=1;" parent="1" vertex="1">
          <mxGeometry x="120" y="80" width="100" height="300" as="geometry" />
        </mxCell>
        <mxCell id="3nuBFxr9cyL0pnOWT2aG-2" value="" style="points=[];perimeter=orthogonalPerimeter;rounded=0;shadow=0;strokeWidth=1;" parent="3nuBFxr9cyL0pnOWT2aG-1" vertex="1">
          <mxGeometry x="45" y="70" width="10" height="190" as="geometry" />
        </mxCell>
        <mxCell id="3nuBFxr9cyL0pnOWT2aG-3" value="dispatch" style="verticalAlign=bottom;startArrow=oval;endArrow=block;startSize=8;shadow=0;strokeWidth=1;" parent="3nuBFxr9cyL0pnOWT2aG-1" target="3nuBFxr9cyL0pnOWT2aG-2" edge="1">
          <mxGeometry relative="1" as="geometry">
            <mxPoint x="-15" y="70" as="sourcePoint" />
          </mxGeometry>
        </mxCell>
        <mxCell id="3nuBFxr9cyL0pnOWT2aG-4" value="" style="points=[];perimeter=orthogonalPerimeter;rounded=0;shadow=0;strokeWidth=1;" parent="3nuBFxr9cyL0pnOWT2aG-1" vertex="1">
          <mxGeometry x="50" y="120" width="10" height="80" as="geometry" />
        </mxCell>
        <mxCell id="3nuBFxr9cyL0pnOWT2aG-5" value=":Object" style="shape=umlLifeline;perimeter=lifelinePerimeter;container=1;collapsible=0;recursiveResize=0;rounded=0;shadow=0;strokeWidth=1;" parent="1" vertex="1">
          <mxGeometry x="300" y="80" width="100" height="300" as="geometry" />
        </mxCell>
        <mxCell id="3nuBFxr9cyL0pnOWT2aG-6" value="" style="points=[];perimeter=orthogonalPerimeter;rounded=0;shadow=0;strokeWidth=1;" parent="3nuBFxr9cyL0pnOWT2aG-5" vertex="1">
          <mxGeometry x="45" y="80" width="10" height="160" as="geometry" />
        </mxCell>
        <mxCell id="3nuBFxr9cyL0pnOWT2aG-7" value="return" style="verticalAlign=bottom;endArrow=open;dashed=1;endSize=8;exitX=0;exitY=0.95;shadow=0;strokeWidth=1;" parent="1" source="3nuBFxr9cyL0pnOWT2aG-6" target="3nuBFxr9cyL0pnOWT2aG-2" edge="1">
          <mxGeometry relative="1" as="geometry">
            <mxPoint x="275" y="236" as="targetPoint" />
          </mxGeometry>
        </mxCell>
        <mxCell id="3nuBFxr9cyL0pnOWT2aG-8" value="dispatch" style="verticalAlign=bottom;endArrow=block;entryX=0;entryY=0;shadow=0;strokeWidth=1;" parent="1" source="3nuBFxr9cyL0pnOWT2aG-2" target="3nuBFxr9cyL0pnOWT2aG-6" edge="1">
          <mxGeometry relative="1" as="geometry">
            <mxPoint x="275" y="160" as="sourcePoint" />
          </mxGeometry>
        </mxCell>
        <mxCell id="3nuBFxr9cyL0pnOWT2aG-9" value="callback" style="verticalAlign=bottom;endArrow=block;entryX=1;entryY=0;shadow=0;strokeWidth=1;" parent="1" source="3nuBFxr9cyL0pnOWT2aG-6" target="3nuBFxr9cyL0pnOWT2aG-4" edge="1">
          <mxGeometry relative="1" as="geometry">
            <mxPoint x="240" y="200" as="sourcePoint" />
          </mxGeometry>
        </mxCell>
        <mxCell id="3nuBFxr9cyL0pnOWT2aG-10" value="return" style="verticalAlign=bottom;endArrow=open;dashed=1;endSize=8;exitX=1;exitY=0.95;shadow=0;strokeWidth=1;" parent="1" source="3nuBFxr9cyL0pnOWT2aG-4" target="3nuBFxr9cyL0pnOWT2aG-6" edge="1">
          <mxGeometry relative="1" as="geometry">
            <mxPoint x="240" y="257" as="targetPoint" />
          </mxGeometry>
        </mxCell>
      </root>
    </mxGraphModel>
  </diagram>
  <diagram id="B7O2xZW3iP4UBgiph990" name="第 2 页">
    <mxGraphModel dx="2249" dy="804" grid="1" gridSize="10" guides="1" tooltips="1" connect="1" arrows="1" fold="1" page="1" pageScale="1" pageWidth="827" pageHeight="1169" math="0" shadow="0">
      <root>
        <mxCell id="7mqrDgHlRomL16Z5-wrn-0" />
        <mxCell id="7mqrDgHlRomL16Z5-wrn-1" parent="7mqrDgHlRomL16Z5-wrn-0" />
        <mxCell id="7mqrDgHlRomL16Z5-wrn-106" value="" style="verticalLabelPosition=bottom;verticalAlign=top;html=1;shape=mxgraph.basic.rect;fillColor2=none;strokeWidth=1;size=20;indent=5;" vertex="1" parent="7mqrDgHlRomL16Z5-wrn-1">
          <mxGeometry x="510" y="445" width="150" height="55" as="geometry" />
        </mxCell>
        <mxCell id="7mqrDgHlRomL16Z5-wrn-105" value="" style="verticalLabelPosition=bottom;verticalAlign=top;html=1;shape=mxgraph.basic.rect;fillColor2=none;strokeWidth=1;size=20;indent=5;" vertex="1" parent="7mqrDgHlRomL16Z5-wrn-1">
          <mxGeometry x="501" y="720" width="190" height="50" as="geometry" />
        </mxCell>
        <mxCell id="7mqrDgHlRomL16Z5-wrn-91" style="edgeStyle=none;rounded=0;orthogonalLoop=1;jettySize=auto;html=1;" edge="1" parent="7mqrDgHlRomL16Z5-wrn-1" source="7mqrDgHlRomL16Z5-wrn-60" target="7mqrDgHlRomL16Z5-wrn-82">
          <mxGeometry relative="1" as="geometry" />
        </mxCell>
        <mxCell id="7mqrDgHlRomL16Z5-wrn-60" value="" style="verticalLabelPosition=bottom;verticalAlign=top;html=1;shape=mxgraph.basic.rect;fillColor2=none;strokeWidth=1;size=20;indent=5;" vertex="1" parent="7mqrDgHlRomL16Z5-wrn-1">
          <mxGeometry x="268" y="635" width="220" height="60" as="geometry" />
        </mxCell>
        <mxCell id="7mqrDgHlRomL16Z5-wrn-58" value="" style="verticalLabelPosition=bottom;verticalAlign=top;html=1;shape=mxgraph.basic.rect;fillColor2=none;strokeWidth=1;size=20;indent=5;" vertex="1" parent="7mqrDgHlRomL16Z5-wrn-1">
          <mxGeometry x="22" y="417.5" width="219" height="40" as="geometry" />
        </mxCell>
        <mxCell id="7mqrDgHlRomL16Z5-wrn-46" value="" style="edgeStyle=orthogonalEdgeStyle;rounded=0;orthogonalLoop=1;jettySize=auto;html=1;" edge="1" parent="7mqrDgHlRomL16Z5-wrn-1" source="7mqrDgHlRomL16Z5-wrn-32" target="7mqrDgHlRomL16Z5-wrn-34">
          <mxGeometry relative="1" as="geometry" />
        </mxCell>
        <mxCell id="7mqrDgHlRomL16Z5-wrn-56" style="edgeStyle=orthogonalEdgeStyle;rounded=0;orthogonalLoop=1;jettySize=auto;html=1;" edge="1" parent="7mqrDgHlRomL16Z5-wrn-1" source="7mqrDgHlRomL16Z5-wrn-32" target="7mqrDgHlRomL16Z5-wrn-52">
          <mxGeometry relative="1" as="geometry" />
        </mxCell>
        <mxCell id="7mqrDgHlRomL16Z5-wrn-32" value="" style="verticalLabelPosition=bottom;verticalAlign=top;html=1;shape=mxgraph.basic.rect;fillColor2=none;strokeWidth=1;size=20;indent=5;" vertex="1" parent="7mqrDgHlRomL16Z5-wrn-1">
          <mxGeometry x="160" y="270" width="220" height="30" as="geometry" />
        </mxCell>
        <mxCell id="7mqrDgHlRomL16Z5-wrn-76" style="edgeStyle=orthogonalEdgeStyle;rounded=0;orthogonalLoop=1;jettySize=auto;html=1;exitX=0.5;exitY=1;exitDx=0;exitDy=0;exitPerimeter=0;entryX=0;entryY=0;entryDx=0;entryDy=0;entryPerimeter=0;" edge="1" parent="7mqrDgHlRomL16Z5-wrn-1" source="7mqrDgHlRomL16Z5-wrn-3" target="7mqrDgHlRomL16Z5-wrn-71">
          <mxGeometry relative="1" as="geometry" />
        </mxCell>
        <mxCell id="7mqrDgHlRomL16Z5-wrn-3" value="" style="fontColor=#0066CC;verticalAlign=top;verticalLabelPosition=bottom;labelPosition=center;align=center;html=1;outlineConnect=0;fillColor=#CCCCCC;strokeColor=#6881B3;gradientColor=none;gradientDirection=north;strokeWidth=2;shape=mxgraph.networks.router;" vertex="1" parent="7mqrDgHlRomL16Z5-wrn-1">
          <mxGeometry x="530" y="120" width="100" height="30" as="geometry" />
        </mxCell>
        <mxCell id="7mqrDgHlRomL16Z5-wrn-4" value="" style="fontColor=#0066CC;verticalAlign=top;verticalLabelPosition=bottom;labelPosition=center;align=center;html=1;outlineConnect=0;fillColor=#CCCCCC;strokeColor=#6881B3;gradientColor=none;gradientDirection=north;strokeWidth=2;shape=mxgraph.networks.load_balancer;" vertex="1" parent="7mqrDgHlRomL16Z5-wrn-1">
          <mxGeometry x="310" y="275" width="60" height="20" as="geometry" />
        </mxCell>
        <mxCell id="7mqrDgHlRomL16Z5-wrn-5" value="" style="endArrow=none;html=1;entryX=0.5;entryY=1;entryDx=0;entryDy=0;entryPerimeter=0;shape=link;" edge="1" parent="7mqrDgHlRomL16Z5-wrn-1">
          <mxGeometry width="50" height="50" relative="1" as="geometry">
            <mxPoint x="580" y="910" as="sourcePoint" />
            <mxPoint x="580" y="170" as="targetPoint" />
            <Array as="points">
              <mxPoint x="580" y="330" />
            </Array>
          </mxGeometry>
        </mxCell>
        <mxCell id="7mqrDgHlRomL16Z5-wrn-11" value="" style="fontColor=#0066CC;verticalAlign=top;verticalLabelPosition=bottom;labelPosition=center;align=center;html=1;outlineConnect=0;fillColor=#CCCCCC;strokeColor=#6881B3;gradientColor=none;gradientDirection=north;strokeWidth=2;shape=mxgraph.networks.load_balancer;" vertex="1" parent="7mqrDgHlRomL16Z5-wrn-1">
          <mxGeometry x="170" y="275" width="60" height="20" as="geometry" />
        </mxCell>
        <mxCell id="7mqrDgHlRomL16Z5-wrn-63" value="" style="edgeStyle=orthogonalEdgeStyle;rounded=0;orthogonalLoop=1;jettySize=auto;html=1;" edge="1" parent="7mqrDgHlRomL16Z5-wrn-1" source="7mqrDgHlRomL16Z5-wrn-34" target="7mqrDgHlRomL16Z5-wrn-58">
          <mxGeometry relative="1" as="geometry" />
        </mxCell>
        <mxCell id="7mqrDgHlRomL16Z5-wrn-34" value="" style="verticalLabelPosition=bottom;verticalAlign=top;html=1;shape=mxgraph.basic.rect;fillColor2=none;strokeWidth=1;size=20;indent=5;" vertex="1" parent="7mqrDgHlRomL16Z5-wrn-1">
          <mxGeometry x="21" y="351" width="220" height="30" as="geometry" />
        </mxCell>
        <mxCell id="7mqrDgHlRomL16Z5-wrn-35" value="" style="fontColor=#0066CC;verticalAlign=top;verticalLabelPosition=bottom;labelPosition=center;align=center;html=1;outlineConnect=0;fillColor=#CCCCCC;strokeColor=#6881B3;gradientColor=none;gradientDirection=north;strokeWidth=2;shape=mxgraph.networks.load_balancer;" vertex="1" parent="7mqrDgHlRomL16Z5-wrn-1">
          <mxGeometry x="171" y="356" width="60" height="20" as="geometry" />
        </mxCell>
        <mxCell id="7mqrDgHlRomL16Z5-wrn-36" value="" style="fontColor=#0066CC;verticalAlign=top;verticalLabelPosition=bottom;labelPosition=center;align=center;html=1;outlineConnect=0;fillColor=#CCCCCC;strokeColor=#6881B3;gradientColor=none;gradientDirection=north;strokeWidth=2;shape=mxgraph.networks.load_balancer;" vertex="1" parent="7mqrDgHlRomL16Z5-wrn-1">
          <mxGeometry x="28.5" y="356" width="60" height="20" as="geometry" />
        </mxCell>
        <mxCell id="7mqrDgHlRomL16Z5-wrn-39" value="" style="fontColor=#0066CC;verticalAlign=top;verticalLabelPosition=bottom;labelPosition=center;align=center;html=1;outlineConnect=0;fillColor=#CCCCCC;strokeColor=#6881B3;gradientColor=none;gradientDirection=north;strokeWidth=2;shape=mxgraph.networks.storage;" vertex="1" parent="7mqrDgHlRomL16Z5-wrn-1">
          <mxGeometry x="636" y="725" width="40" height="40" as="geometry" />
        </mxCell>
        <mxCell id="7mqrDgHlRomL16Z5-wrn-42" value="" style="fontColor=#0066CC;verticalAlign=top;verticalLabelPosition=bottom;labelPosition=center;align=center;html=1;outlineConnect=0;fillColor=#CCCCCC;strokeColor=#6881B3;gradientColor=none;gradientDirection=north;strokeWidth=2;shape=mxgraph.networks.server;" vertex="1" parent="7mqrDgHlRomL16Z5-wrn-1">
          <mxGeometry x="430.75" y="641.5" width="33.5" height="47" as="geometry" />
        </mxCell>
        <mxCell id="7mqrDgHlRomL16Z5-wrn-44" value="" style="fontColor=#0066CC;verticalAlign=top;verticalLabelPosition=bottom;labelPosition=center;align=center;html=1;outlineConnect=0;fillColor=#CCCCCC;strokeColor=#6881B3;gradientColor=none;gradientDirection=north;strokeWidth=2;shape=mxgraph.networks.web_server;" vertex="1" parent="7mqrDgHlRomL16Z5-wrn-1">
          <mxGeometry x="181" y="422.5" width="30" height="35" as="geometry" />
        </mxCell>
        <mxCell id="7mqrDgHlRomL16Z5-wrn-64" value="HTTP Request" style="edgeStyle=orthogonalEdgeStyle;rounded=0;orthogonalLoop=1;jettySize=auto;html=1;" edge="1" parent="7mqrDgHlRomL16Z5-wrn-1" source="7mqrDgHlRomL16Z5-wrn-52" target="7mqrDgHlRomL16Z5-wrn-62">
          <mxGeometry relative="1" as="geometry" />
        </mxCell>
        <mxCell id="7mqrDgHlRomL16Z5-wrn-52" value="" style="verticalLabelPosition=bottom;verticalAlign=top;html=1;shape=mxgraph.basic.rect;fillColor2=none;strokeWidth=1;size=20;indent=5;" vertex="1" parent="7mqrDgHlRomL16Z5-wrn-1">
          <mxGeometry x="282.5" y="351" width="220" height="30" as="geometry" />
        </mxCell>
        <mxCell id="7mqrDgHlRomL16Z5-wrn-53" value="" style="fontColor=#0066CC;verticalAlign=top;verticalLabelPosition=bottom;labelPosition=center;align=center;html=1;outlineConnect=0;fillColor=#CCCCCC;strokeColor=#6881B3;gradientColor=none;gradientDirection=north;strokeWidth=2;shape=mxgraph.networks.load_balancer;" vertex="1" parent="7mqrDgHlRomL16Z5-wrn-1">
          <mxGeometry x="432.5" y="356" width="60" height="20" as="geometry" />
        </mxCell>
        <mxCell id="7mqrDgHlRomL16Z5-wrn-54" value="" style="fontColor=#0066CC;verticalAlign=top;verticalLabelPosition=bottom;labelPosition=center;align=center;html=1;outlineConnect=0;fillColor=#CCCCCC;strokeColor=#6881B3;gradientColor=none;gradientDirection=north;strokeWidth=2;shape=mxgraph.networks.load_balancer;" vertex="1" parent="7mqrDgHlRomL16Z5-wrn-1">
          <mxGeometry x="290" y="356" width="60" height="20" as="geometry" />
        </mxCell>
        <mxCell id="7mqrDgHlRomL16Z5-wrn-59" value="" style="fontColor=#0066CC;verticalAlign=top;verticalLabelPosition=bottom;labelPosition=center;align=center;html=1;outlineConnect=0;fillColor=#CCCCCC;strokeColor=#6881B3;gradientColor=none;gradientDirection=north;strokeWidth=2;shape=mxgraph.networks.web_server;" vertex="1" parent="7mqrDgHlRomL16Z5-wrn-1">
          <mxGeometry x="38.5" y="422.5" width="32.5" height="35" as="geometry" />
        </mxCell>
        <mxCell id="7mqrDgHlRomL16Z5-wrn-61" value="" style="fontColor=#0066CC;verticalAlign=top;verticalLabelPosition=bottom;labelPosition=center;align=center;html=1;outlineConnect=0;fillColor=#CCCCCC;strokeColor=#6881B3;gradientColor=none;gradientDirection=north;strokeWidth=2;shape=mxgraph.networks.server;" vertex="1" parent="7mqrDgHlRomL16Z5-wrn-1">
          <mxGeometry x="288.25" y="641.5" width="33.5" height="47" as="geometry" />
        </mxCell>
        <mxCell id="7mqrDgHlRomL16Z5-wrn-126" style="edgeStyle=none;rounded=0;orthogonalLoop=1;jettySize=auto;html=1;exitX=0.1;exitY=1;exitDx=0;exitDy=0;exitPerimeter=0;" edge="1" parent="7mqrDgHlRomL16Z5-wrn-1" source="7mqrDgHlRomL16Z5-wrn-62">
          <mxGeometry relative="1" as="geometry">
            <mxPoint x="90" y="610" as="targetPoint" />
          </mxGeometry>
        </mxCell>
        <mxCell id="7mqrDgHlRomL16Z5-wrn-62" value="" style="fontColor=#0066CC;verticalAlign=top;verticalLabelPosition=bottom;labelPosition=center;align=center;html=1;outlineConnect=0;fillColor=#CCCCCC;strokeColor=#6881B3;gradientColor=none;gradientDirection=north;strokeWidth=2;shape=mxgraph.networks.switch;" vertex="1" parent="7mqrDgHlRomL16Z5-wrn-1">
          <mxGeometry x="342.5" y="500" width="100" height="30" as="geometry" />
        </mxCell>
        <mxCell id="7mqrDgHlRomL16Z5-wrn-80" style="edgeStyle=orthogonalEdgeStyle;rounded=0;orthogonalLoop=1;jettySize=auto;html=1;exitX=1;exitY=1;exitDx=0;exitDy=0;exitPerimeter=0;entryX=0.545;entryY=-0.033;entryDx=0;entryDy=0;entryPerimeter=0;" edge="1" parent="7mqrDgHlRomL16Z5-wrn-1" source="7mqrDgHlRomL16Z5-wrn-66" target="7mqrDgHlRomL16Z5-wrn-32">
          <mxGeometry relative="1" as="geometry" />
        </mxCell>
        <mxCell id="7mqrDgHlRomL16Z5-wrn-66" value="" style="fontColor=#0066CC;verticalAlign=top;verticalLabelPosition=bottom;labelPosition=center;align=center;html=1;outlineConnect=0;fillColor=#CCCCCC;strokeColor=#6881B3;gradientColor=none;gradientDirection=north;strokeWidth=2;shape=mxgraph.networks.firewall;" vertex="1" parent="7mqrDgHlRomL16Z5-wrn-1">
          <mxGeometry x="250" y="190" width="30" height="30" as="geometry" />
        </mxCell>
        <mxCell id="7mqrDgHlRomL16Z5-wrn-67" value="" style="fontColor=#0066CC;verticalAlign=top;verticalLabelPosition=bottom;labelPosition=center;align=center;html=1;outlineConnect=0;fillColor=#CCCCCC;strokeColor=#6881B3;gradientColor=none;gradientDirection=north;strokeWidth=2;shape=mxgraph.networks.firewall;" vertex="1" parent="7mqrDgHlRomL16Z5-wrn-1">
          <mxGeometry x="280" y="190" width="30" height="30" as="geometry" />
        </mxCell>
        <mxCell id="7mqrDgHlRomL16Z5-wrn-68" value="" style="fontColor=#0066CC;verticalAlign=top;verticalLabelPosition=bottom;labelPosition=center;align=center;html=1;outlineConnect=0;fillColor=#CCCCCC;strokeColor=#6881B3;gradientColor=none;gradientDirection=north;strokeWidth=2;shape=mxgraph.networks.firewall;" vertex="1" parent="7mqrDgHlRomL16Z5-wrn-1">
          <mxGeometry x="310" y="190" width="30" height="30" as="geometry" />
        </mxCell>
        <mxCell id="7mqrDgHlRomL16Z5-wrn-69" value="" style="fontColor=#0066CC;verticalAlign=top;verticalLabelPosition=bottom;labelPosition=center;align=center;html=1;outlineConnect=0;fillColor=#CCCCCC;strokeColor=#6881B3;gradientColor=none;gradientDirection=north;strokeWidth=2;shape=mxgraph.networks.firewall;" vertex="1" parent="7mqrDgHlRomL16Z5-wrn-1">
          <mxGeometry x="340" y="190" width="30" height="30" as="geometry" />
        </mxCell>
        <mxCell id="7mqrDgHlRomL16Z5-wrn-70" value="" style="fontColor=#0066CC;verticalAlign=top;verticalLabelPosition=bottom;labelPosition=center;align=center;html=1;outlineConnect=0;fillColor=#CCCCCC;strokeColor=#6881B3;gradientColor=none;gradientDirection=north;strokeWidth=2;shape=mxgraph.networks.firewall;" vertex="1" parent="7mqrDgHlRomL16Z5-wrn-1">
          <mxGeometry x="370" y="190" width="30" height="30" as="geometry" />
        </mxCell>
        <mxCell id="7mqrDgHlRomL16Z5-wrn-71" value="" style="fontColor=#0066CC;verticalAlign=top;verticalLabelPosition=bottom;labelPosition=center;align=center;html=1;outlineConnect=0;fillColor=#CCCCCC;strokeColor=#6881B3;gradientColor=none;gradientDirection=north;strokeWidth=2;shape=mxgraph.networks.firewall;" vertex="1" parent="7mqrDgHlRomL16Z5-wrn-1">
          <mxGeometry x="400" y="190" width="30" height="30" as="geometry" />
        </mxCell>
        <mxCell id="7mqrDgHlRomL16Z5-wrn-72" value="" style="fontColor=#0066CC;verticalAlign=top;verticalLabelPosition=bottom;labelPosition=center;align=center;html=1;outlineConnect=0;fillColor=#CCCCCC;strokeColor=#6881B3;gradientColor=none;gradientDirection=north;strokeWidth=2;shape=mxgraph.networks.firewall;" vertex="1" parent="7mqrDgHlRomL16Z5-wrn-1">
          <mxGeometry x="430" y="190" width="30" height="30" as="geometry" />
        </mxCell>
        <mxCell id="7mqrDgHlRomL16Z5-wrn-73" value="" style="fontColor=#0066CC;verticalAlign=top;verticalLabelPosition=bottom;labelPosition=center;align=center;html=1;outlineConnect=0;fillColor=#CCCCCC;strokeColor=#6881B3;gradientColor=none;gradientDirection=north;strokeWidth=2;shape=mxgraph.networks.firewall;" vertex="1" parent="7mqrDgHlRomL16Z5-wrn-1">
          <mxGeometry x="460" y="190" width="30" height="30" as="geometry" />
        </mxCell>
        <mxCell id="7mqrDgHlRomL16Z5-wrn-74" value="" style="fontColor=#0066CC;verticalAlign=top;verticalLabelPosition=bottom;labelPosition=center;align=center;html=1;outlineConnect=0;fillColor=#CCCCCC;strokeColor=#6881B3;gradientColor=none;gradientDirection=north;strokeWidth=2;shape=mxgraph.networks.firewall;" vertex="1" parent="7mqrDgHlRomL16Z5-wrn-1">
          <mxGeometry x="490" y="190" width="30" height="30" as="geometry" />
        </mxCell>
        <mxCell id="7mqrDgHlRomL16Z5-wrn-75" value="" style="fontColor=#0066CC;verticalAlign=top;verticalLabelPosition=bottom;labelPosition=center;align=center;html=1;outlineConnect=0;fillColor=#CCCCCC;strokeColor=#6881B3;gradientColor=none;gradientDirection=north;strokeWidth=2;shape=mxgraph.networks.firewall;" vertex="1" parent="7mqrDgHlRomL16Z5-wrn-1">
          <mxGeometry x="520" y="190" width="30" height="30" as="geometry" />
        </mxCell>
        <mxCell id="7mqrDgHlRomL16Z5-wrn-78" value="" style="fontColor=#0066CC;verticalAlign=top;verticalLabelPosition=bottom;labelPosition=center;align=center;html=1;outlineConnect=0;fillColor=#CCCCCC;strokeColor=#6881B3;gradientColor=none;gradientDirection=north;strokeWidth=2;shape=mxgraph.networks.firewall;" vertex="1" parent="7mqrDgHlRomL16Z5-wrn-1">
          <mxGeometry x="550" y="190" width="30" height="30" as="geometry" />
        </mxCell>
        <mxCell id="7mqrDgHlRomL16Z5-wrn-79" value="" style="fontColor=#0066CC;verticalAlign=top;verticalLabelPosition=bottom;labelPosition=center;align=center;html=1;outlineConnect=0;fillColor=#CCCCCC;strokeColor=#6881B3;gradientColor=none;gradientDirection=north;strokeWidth=2;shape=mxgraph.networks.firewall;" vertex="1" parent="7mqrDgHlRomL16Z5-wrn-1">
          <mxGeometry x="222" y="190" width="30" height="30" as="geometry" />
        </mxCell>
        <mxCell id="7mqrDgHlRomL16Z5-wrn-87" style="edgeStyle=none;rounded=0;orthogonalLoop=1;jettySize=auto;html=1;" edge="1" parent="7mqrDgHlRomL16Z5-wrn-1" source="7mqrDgHlRomL16Z5-wrn-81" target="7mqrDgHlRomL16Z5-wrn-82">
          <mxGeometry relative="1" as="geometry">
            <mxPoint x="125" y="750" as="targetPoint" />
          </mxGeometry>
        </mxCell>
        <mxCell id="7mqrDgHlRomL16Z5-wrn-81" value="" style="fontColor=#0066CC;verticalAlign=top;verticalLabelPosition=bottom;labelPosition=center;align=center;html=1;outlineConnect=0;fillColor=#CCCCCC;strokeColor=#6881B3;gradientColor=none;gradientDirection=north;strokeWidth=2;shape=mxgraph.networks.server_storage;" vertex="1" parent="7mqrDgHlRomL16Z5-wrn-1">
          <mxGeometry x="122" y="790" width="48" height="50" as="geometry" />
        </mxCell>
        <mxCell id="7mqrDgHlRomL16Z5-wrn-82" value="" style="fontColor=#0066CC;verticalAlign=top;verticalLabelPosition=bottom;labelPosition=center;align=center;html=1;outlineConnect=0;fillColor=#CCCCCC;strokeColor=#6881B3;gradientColor=none;gradientDirection=north;strokeWidth=2;shape=mxgraph.networks.supercomputer;" vertex="1" parent="7mqrDgHlRomL16Z5-wrn-1">
          <mxGeometry x="28.5" y="585" width="58" height="71" as="geometry" />
        </mxCell>
        <mxCell id="7mqrDgHlRomL16Z5-wrn-88" value="" style="fontColor=#0066CC;verticalAlign=top;verticalLabelPosition=bottom;labelPosition=center;align=center;html=1;outlineConnect=0;fillColor=#CCCCCC;strokeColor=#6881B3;gradientColor=none;gradientDirection=north;strokeWidth=2;shape=mxgraph.networks.storage;" vertex="1" parent="7mqrDgHlRomL16Z5-wrn-1">
          <mxGeometry x="518.5" y="725" width="40" height="40" as="geometry" />
        </mxCell>
        <mxCell id="7mqrDgHlRomL16Z5-wrn-90" value="" style="html=1;outlineConnect=0;fillColor=#CCCCCC;strokeColor=#6881B3;gradientColor=none;gradientDirection=north;strokeWidth=2;shape=mxgraph.networks.comm_link_edge;html=1;" edge="1" parent="7mqrDgHlRomL16Z5-wrn-1">
          <mxGeometry width="100" height="100" relative="1" as="geometry">
            <mxPoint x="556" y="744.5" as="sourcePoint" />
            <mxPoint x="636" y="744.5" as="targetPoint" />
          </mxGeometry>
        </mxCell>
        <mxCell id="7mqrDgHlRomL16Z5-wrn-96" value="" style="fontColor=#0066CC;verticalAlign=top;verticalLabelPosition=bottom;labelPosition=center;align=center;html=1;outlineConnect=0;fillColor=#CCCCCC;strokeColor=#6881B3;gradientColor=none;gradientDirection=north;strokeWidth=2;shape=mxgraph.networks.external_storage;" vertex="1" parent="7mqrDgHlRomL16Z5-wrn-1">
          <mxGeometry x="520" y="450" width="40" height="40" as="geometry" />
        </mxCell>
        <mxCell id="7mqrDgHlRomL16Z5-wrn-102" value="" style="fontColor=#0066CC;verticalAlign=top;verticalLabelPosition=bottom;labelPosition=center;align=center;html=1;outlineConnect=0;fillColor=#CCCCCC;strokeColor=#6881B3;gradientColor=none;gradientDirection=north;strokeWidth=2;shape=mxgraph.networks.external_storage;" vertex="1" parent="7mqrDgHlRomL16Z5-wrn-1">
          <mxGeometry x="610" y="450" width="40" height="40" as="geometry" />
        </mxCell>
        <mxCell id="7mqrDgHlRomL16Z5-wrn-109" value="" style="fontColor=#0066CC;verticalAlign=top;verticalLabelPosition=bottom;labelPosition=center;align=center;html=1;outlineConnect=0;fillColor=#CCCCCC;strokeColor=#6881B3;gradientColor=none;gradientDirection=north;strokeWidth=2;shape=mxgraph.networks.server_storage;" vertex="1" parent="7mqrDgHlRomL16Z5-wrn-1">
          <mxGeometry x="121" y="890" width="49" height="50" as="geometry" />
        </mxCell>
        <mxCell id="7mqrDgHlRomL16Z5-wrn-112" value="F5&lt;br&gt;DNS,LB" style="text;html=1;align=center;verticalAlign=middle;resizable=0;points=[];autosize=1;strokeColor=none;" vertex="1" parent="7mqrDgHlRomL16Z5-wrn-1">
          <mxGeometry x="435" y="120" width="60" height="30" as="geometry" />
        </mxCell>
        <mxCell id="7mqrDgHlRomL16Z5-wrn-113" value="WAF" style="text;html=1;align=center;verticalAlign=middle;resizable=0;points=[];autosize=1;strokeColor=none;" vertex="1" parent="7mqrDgHlRomL16Z5-wrn-1">
          <mxGeometry x="180" y="200" width="40" height="20" as="geometry" />
        </mxCell>
        <mxCell id="7mqrDgHlRomL16Z5-wrn-114" value="FrontNG&lt;br&gt;Proxy,LB" style="text;html=1;align=center;verticalAlign=middle;resizable=0;points=[];autosize=1;strokeColor=none;" vertex="1" parent="7mqrDgHlRomL16Z5-wrn-1">
          <mxGeometry x="90" y="275" width="60" height="30" as="geometry" />
        </mxCell>
        <mxCell id="7mqrDgHlRomL16Z5-wrn-115" value="InternalNG&lt;br&gt;Proxy,LB" style="text;html=1;align=center;verticalAlign=middle;resizable=0;points=[];autosize=1;strokeColor=none;" vertex="1" parent="7mqrDgHlRomL16Z5-wrn-1">
          <mxGeometry x="-45" y="356" width="70" height="30" as="geometry" />
        </mxCell>
        <mxCell id="7mqrDgHlRomL16Z5-wrn-116" value="NodeJS" style="text;html=1;align=center;verticalAlign=middle;resizable=0;points=[];autosize=1;strokeColor=none;" vertex="1" parent="7mqrDgHlRomL16Z5-wrn-1">
          <mxGeometry x="-39" y="440" width="60" height="20" as="geometry" />
        </mxCell>
        <mxCell id="7mqrDgHlRomL16Z5-wrn-117" value="Open Gateway&lt;br&gt;Crypto,Current Limit, Meltdown" style="text;html=1;align=center;verticalAlign=middle;resizable=0;points=[];autosize=1;strokeColor=none;" vertex="1" parent="7mqrDgHlRomL16Z5-wrn-1">
          <mxGeometry x="170" y="500" width="180" height="30" as="geometry" />
        </mxCell>
        <mxCell id="7mqrDgHlRomL16Z5-wrn-118" value="xxjob&lt;br&gt;Task Schedular&amp;nbsp;" style="text;html=1;align=center;verticalAlign=middle;resizable=0;points=[];autosize=1;strokeColor=none;" vertex="1" parent="7mqrDgHlRomL16Z5-wrn-1">
          <mxGeometry x="420" y="470" width="100" height="30" as="geometry" />
        </mxCell>
        <mxCell id="7mqrDgHlRomL16Z5-wrn-119" value="Mysql DB&amp;nbsp;" style="text;html=1;align=center;verticalAlign=middle;resizable=0;points=[];autosize=1;strokeColor=none;" vertex="1" parent="7mqrDgHlRomL16Z5-wrn-1">
          <mxGeometry x="439" y="750" width="70" height="20" as="geometry" />
        </mxCell>
        <mxCell id="7mqrDgHlRomL16Z5-wrn-120" value="Web_Server" style="text;html=1;align=center;verticalAlign=middle;resizable=0;points=[];autosize=1;strokeColor=none;" vertex="1" parent="7mqrDgHlRomL16Z5-wrn-1">
          <mxGeometry x="185" y="670" width="80" height="20" as="geometry" />
        </mxCell>
        <mxCell id="7mqrDgHlRomL16Z5-wrn-121" value="Zookeeper" style="text;html=1;align=center;verticalAlign=middle;resizable=0;points=[];autosize=1;strokeColor=none;" vertex="1" parent="7mqrDgHlRomL16Z5-wrn-1">
          <mxGeometry x="-60" y="630" width="70" height="20" as="geometry" />
        </mxCell>
        <mxCell id="7mqrDgHlRomL16Z5-wrn-122" value="Web_Server" style="text;html=1;align=center;verticalAlign=middle;resizable=0;points=[];autosize=1;strokeColor=none;" vertex="1" parent="7mqrDgHlRomL16Z5-wrn-1">
          <mxGeometry x="38.5" y="820" width="80" height="20" as="geometry" />
        </mxCell>
        <mxCell id="7mqrDgHlRomL16Z5-wrn-127" value="" style="endArrow=classic;html=1;entryX=0.855;entryY=-0.117;entryDx=0;entryDy=0;entryPerimeter=0;" edge="1" parent="7mqrDgHlRomL16Z5-wrn-1" target="7mqrDgHlRomL16Z5-wrn-60">
          <mxGeometry width="50" height="50" relative="1" as="geometry">
            <mxPoint x="520" y="510" as="sourcePoint" />
            <mxPoint x="550" y="550" as="targetPoint" />
          </mxGeometry>
        </mxCell>
        <mxCell id="7mqrDgHlRomL16Z5-wrn-130" value="" style="rounded=0;whiteSpace=wrap;html=1;" vertex="1" parent="7mqrDgHlRomL16Z5-wrn-1">
          <mxGeometry x="268" y="780" width="222" height="110" as="geometry" />
        </mxCell>
        <mxCell id="7mqrDgHlRomL16Z5-wrn-131" value="" style="endArrow=classic;startArrow=classic;html=1;" edge="1" parent="7mqrDgHlRomL16Z5-wrn-1">
          <mxGeometry width="50" height="50" relative="1" as="geometry">
            <mxPoint x="378" y="777" as="sourcePoint" />
            <mxPoint x="377.5" y="697" as="targetPoint" />
          </mxGeometry>
        </mxCell>
        <mxCell id="7mqrDgHlRomL16Z5-wrn-140" value="" style="endArrow=classic;startArrow=classic;html=1;entryX=0.2;entryY=-0.06;entryDx=0;entryDy=0;entryPerimeter=0;exitX=0.995;exitY=0.583;exitDx=0;exitDy=0;exitPerimeter=0;" edge="1" parent="7mqrDgHlRomL16Z5-wrn-1" source="7mqrDgHlRomL16Z5-wrn-60" target="7mqrDgHlRomL16Z5-wrn-105">
          <mxGeometry width="50" height="50" relative="1" as="geometry">
            <mxPoint x="390" y="530" as="sourcePoint" />
            <mxPoint x="440" y="480" as="targetPoint" />
          </mxGeometry>
        </mxCell>
        <mxCell id="7mqrDgHlRomL16Z5-wrn-141" value="" style="fontColor=#0066CC;verticalAlign=top;verticalLabelPosition=bottom;labelPosition=center;align=center;html=1;outlineConnect=0;fillColor=#CCCCCC;strokeColor=#6881B3;gradientColor=none;gradientDirection=north;strokeWidth=2;shape=mxgraph.networks.tape_storage;" vertex="1" parent="7mqrDgHlRomL16Z5-wrn-1">
          <mxGeometry x="291.75" y="795" width="30" height="30" as="geometry" />
        </mxCell>
        <mxCell id="7mqrDgHlRomL16Z5-wrn-142" value="" style="fontColor=#0066CC;verticalAlign=top;verticalLabelPosition=bottom;labelPosition=center;align=center;html=1;outlineConnect=0;fillColor=#CCCCCC;strokeColor=#6881B3;gradientColor=none;gradientDirection=north;strokeWidth=2;shape=mxgraph.networks.tape_storage;" vertex="1" parent="7mqrDgHlRomL16Z5-wrn-1">
          <mxGeometry x="291.75" y="850" width="30" height="30" as="geometry" />
        </mxCell>
        <mxCell id="7mqrDgHlRomL16Z5-wrn-147" value="" style="endArrow=classic;startArrow=classic;html=1;" edge="1" parent="7mqrDgHlRomL16Z5-wrn-1">
          <mxGeometry width="50" height="50" relative="1" as="geometry">
            <mxPoint x="305" y="850" as="sourcePoint" />
            <mxPoint x="304.5" y="830" as="targetPoint" />
          </mxGeometry>
        </mxCell>
        <mxCell id="7mqrDgHlRomL16Z5-wrn-148" value="" style="fontColor=#0066CC;verticalAlign=top;verticalLabelPosition=bottom;labelPosition=center;align=center;html=1;outlineConnect=0;fillColor=#CCCCCC;strokeColor=#6881B3;gradientColor=none;gradientDirection=north;strokeWidth=2;shape=mxgraph.networks.tape_storage;" vertex="1" parent="7mqrDgHlRomL16Z5-wrn-1">
          <mxGeometry x="363" y="795" width="30" height="30" as="geometry" />
        </mxCell>
        <mxCell id="7mqrDgHlRomL16Z5-wrn-149" value="" style="fontColor=#0066CC;verticalAlign=top;verticalLabelPosition=bottom;labelPosition=center;align=center;html=1;outlineConnect=0;fillColor=#CCCCCC;strokeColor=#6881B3;gradientColor=none;gradientDirection=north;strokeWidth=2;shape=mxgraph.networks.tape_storage;" vertex="1" parent="7mqrDgHlRomL16Z5-wrn-1">
          <mxGeometry x="363" y="850" width="30" height="30" as="geometry" />
        </mxCell>
        <mxCell id="7mqrDgHlRomL16Z5-wrn-150" value="" style="endArrow=classic;startArrow=classic;html=1;" edge="1" parent="7mqrDgHlRomL16Z5-wrn-1">
          <mxGeometry width="50" height="50" relative="1" as="geometry">
            <mxPoint x="376.25" y="850" as="sourcePoint" />
            <mxPoint x="375.75" y="830" as="targetPoint" />
          </mxGeometry>
        </mxCell>
        <mxCell id="7mqrDgHlRomL16Z5-wrn-151" value="" style="fontColor=#0066CC;verticalAlign=top;verticalLabelPosition=bottom;labelPosition=center;align=center;html=1;outlineConnect=0;fillColor=#CCCCCC;strokeColor=#6881B3;gradientColor=none;gradientDirection=north;strokeWidth=2;shape=mxgraph.networks.tape_storage;" vertex="1" parent="7mqrDgHlRomL16Z5-wrn-1">
          <mxGeometry x="432.5" y="795" width="30" height="30" as="geometry" />
        </mxCell>
        <mxCell id="7mqrDgHlRomL16Z5-wrn-152" value="" style="fontColor=#0066CC;verticalAlign=top;verticalLabelPosition=bottom;labelPosition=center;align=center;html=1;outlineConnect=0;fillColor=#CCCCCC;strokeColor=#6881B3;gradientColor=none;gradientDirection=north;strokeWidth=2;shape=mxgraph.networks.tape_storage;" vertex="1" parent="7mqrDgHlRomL16Z5-wrn-1">
          <mxGeometry x="432.5" y="850" width="30" height="30" as="geometry" />
        </mxCell>
        <mxCell id="7mqrDgHlRomL16Z5-wrn-153" value="" style="endArrow=classic;startArrow=classic;html=1;" edge="1" parent="7mqrDgHlRomL16Z5-wrn-1">
          <mxGeometry width="50" height="50" relative="1" as="geometry">
            <mxPoint x="445.75" y="850" as="sourcePoint" />
            <mxPoint x="445.25" y="830" as="targetPoint" />
          </mxGeometry>
        </mxCell>
        <mxCell id="7mqrDgHlRomL16Z5-wrn-154" value="" style="endArrow=none;dashed=1;html=1;dashPattern=1 3;strokeWidth=2;entryX=1;entryY=0.5;entryDx=0;entryDy=0;exitX=0;exitY=0.5;exitDx=0;exitDy=0;" edge="1" parent="7mqrDgHlRomL16Z5-wrn-1" source="7mqrDgHlRomL16Z5-wrn-130" target="7mqrDgHlRomL16Z5-wrn-130">
          <mxGeometry width="50" height="50" relative="1" as="geometry">
            <mxPoint x="330" y="1010" as="sourcePoint" />
            <mxPoint x="380" y="960" as="targetPoint" />
          </mxGeometry>
        </mxCell>
        <mxCell id="7mqrDgHlRomL16Z5-wrn-155" value="Redis cluster" style="text;html=1;align=center;verticalAlign=middle;resizable=0;points=[];autosize=1;strokeColor=none;" vertex="1" parent="7mqrDgHlRomL16Z5-wrn-1">
          <mxGeometry x="190" y="870" width="80" height="20" as="geometry" />
        </mxCell>
        <mxCell id="7mqrDgHlRomL16Z5-wrn-156" value="" style="endArrow=classic;startArrow=classic;html=1;exitX=0.87;exitY=0.14;exitDx=0;exitDy=0;exitPerimeter=0;entryX=0.223;entryY=0.983;entryDx=0;entryDy=0;entryPerimeter=0;" edge="1" parent="7mqrDgHlRomL16Z5-wrn-1" source="7mqrDgHlRomL16Z5-wrn-81" target="7mqrDgHlRomL16Z5-wrn-60">
          <mxGeometry width="50" height="50" relative="1" as="geometry">
            <mxPoint x="305" y="775" as="sourcePoint" />
            <mxPoint x="305" y="695" as="targetPoint" />
          </mxGeometry>
        </mxCell>
        <mxCell id="7mqrDgHlRomL16Z5-wrn-157" value="" style="endArrow=classic;startArrow=classic;html=1;entryX=0.5;entryY=0.94;entryDx=0;entryDy=0;entryPerimeter=0;" edge="1" parent="7mqrDgHlRomL16Z5-wrn-1" source="7mqrDgHlRomL16Z5-wrn-109" target="7mqrDgHlRomL16Z5-wrn-81">
          <mxGeometry width="50" height="50" relative="1" as="geometry">
            <mxPoint x="-45.000000000000085" y="1014.4200000000001" as="sourcePoint" />
            <mxPoint x="98.72999999999993" y="910" as="targetPoint" />
          </mxGeometry>
        </mxCell>
        <mxCell id="7mqrDgHlRomL16Z5-wrn-158" value="Dubbo RPC" style="endArrow=classic;startArrow=classic;html=1;entryX=0.5;entryY=1;entryDx=0;entryDy=0;entryPerimeter=0;" edge="1" parent="7mqrDgHlRomL16Z5-wrn-1" target="7mqrDgHlRomL16Z5-wrn-62">
          <mxGeometry width="50" height="50" relative="1" as="geometry">
            <mxPoint x="393" y="636" as="sourcePoint" />
            <mxPoint x="440" y="480" as="targetPoint" />
          </mxGeometry>
        </mxCell>
        <mxCell id="7mqrDgHlRomL16Z5-wrn-159" value="Flask_Server" style="text;html=1;align=center;verticalAlign=middle;resizable=0;points=[];autosize=1;strokeColor=none;" vertex="1" parent="7mqrDgHlRomL16Z5-wrn-1">
          <mxGeometry x="28.5" y="920" width="90" height="20" as="geometry" />
        </mxCell>
        <mxCell id="7mqrDgHlRomL16Z5-wrn-160" value="" style="fontColor=#0066CC;verticalAlign=top;verticalLabelPosition=bottom;labelPosition=center;align=center;html=1;outlineConnect=0;fillColor=#CCCCCC;strokeColor=#6881B3;gradientColor=none;gradientDirection=north;strokeWidth=2;shape=mxgraph.networks.firewall;" vertex="1" parent="7mqrDgHlRomL16Z5-wrn-1">
          <mxGeometry x="608" y="190" width="30" height="30" as="geometry" />
        </mxCell>
        <mxCell id="7mqrDgHlRomL16Z5-wrn-161" value="" style="fontColor=#0066CC;verticalAlign=top;verticalLabelPosition=bottom;labelPosition=center;align=center;html=1;outlineConnect=0;fillColor=#CCCCCC;strokeColor=#6881B3;gradientColor=none;gradientDirection=north;strokeWidth=2;shape=mxgraph.networks.firewall;" vertex="1" parent="7mqrDgHlRomL16Z5-wrn-1">
          <mxGeometry x="638" y="190" width="30" height="30" as="geometry" />
        </mxCell>
        <mxCell id="7mqrDgHlRomL16Z5-wrn-162" value="" style="fontColor=#0066CC;verticalAlign=top;verticalLabelPosition=bottom;labelPosition=center;align=center;html=1;outlineConnect=0;fillColor=#CCCCCC;strokeColor=#6881B3;gradientColor=none;gradientDirection=north;strokeWidth=2;shape=mxgraph.networks.firewall;" vertex="1" parent="7mqrDgHlRomL16Z5-wrn-1">
          <mxGeometry x="668" y="190" width="30" height="30" as="geometry" />
        </mxCell>
        <mxCell id="7mqrDgHlRomL16Z5-wrn-163" value="" style="fontColor=#0066CC;verticalAlign=top;verticalLabelPosition=bottom;labelPosition=center;align=center;html=1;outlineConnect=0;fillColor=#CCCCCC;strokeColor=#6881B3;gradientColor=none;gradientDirection=north;strokeWidth=2;shape=mxgraph.networks.firewall;" vertex="1" parent="7mqrDgHlRomL16Z5-wrn-1">
          <mxGeometry x="698" y="190" width="30" height="30" as="geometry" />
        </mxCell>
        <mxCell id="7mqrDgHlRomL16Z5-wrn-164" value="" style="fontColor=#0066CC;verticalAlign=top;verticalLabelPosition=bottom;labelPosition=center;align=center;html=1;outlineConnect=0;fillColor=#CCCCCC;strokeColor=#6881B3;gradientColor=none;gradientDirection=north;strokeWidth=2;shape=mxgraph.networks.firewall;" vertex="1" parent="7mqrDgHlRomL16Z5-wrn-1">
          <mxGeometry x="728" y="190" width="30" height="30" as="geometry" />
        </mxCell>
        <mxCell id="7mqrDgHlRomL16Z5-wrn-165" value="" style="fontColor=#0066CC;verticalAlign=top;verticalLabelPosition=bottom;labelPosition=center;align=center;html=1;outlineConnect=0;fillColor=#CCCCCC;strokeColor=#6881B3;gradientColor=none;gradientDirection=north;strokeWidth=2;shape=mxgraph.networks.firewall;" vertex="1" parent="7mqrDgHlRomL16Z5-wrn-1">
          <mxGeometry x="758" y="190" width="30" height="30" as="geometry" />
        </mxCell>
        <mxCell id="7mqrDgHlRomL16Z5-wrn-166" value="" style="fontColor=#0066CC;verticalAlign=top;verticalLabelPosition=bottom;labelPosition=center;align=center;html=1;outlineConnect=0;fillColor=#CCCCCC;strokeColor=#6881B3;gradientColor=none;gradientDirection=north;strokeWidth=2;shape=mxgraph.networks.firewall;" vertex="1" parent="7mqrDgHlRomL16Z5-wrn-1">
          <mxGeometry x="788" y="190" width="30" height="30" as="geometry" />
        </mxCell>
        <mxCell id="7mqrDgHlRomL16Z5-wrn-167" value="" style="fontColor=#0066CC;verticalAlign=top;verticalLabelPosition=bottom;labelPosition=center;align=center;html=1;outlineConnect=0;fillColor=#CCCCCC;strokeColor=#6881B3;gradientColor=none;gradientDirection=north;strokeWidth=2;shape=mxgraph.networks.firewall;" vertex="1" parent="7mqrDgHlRomL16Z5-wrn-1">
          <mxGeometry x="818" y="190" width="30" height="30" as="geometry" />
        </mxCell>
        <mxCell id="7mqrDgHlRomL16Z5-wrn-168" value="" style="fontColor=#0066CC;verticalAlign=top;verticalLabelPosition=bottom;labelPosition=center;align=center;html=1;outlineConnect=0;fillColor=#CCCCCC;strokeColor=#6881B3;gradientColor=none;gradientDirection=north;strokeWidth=2;shape=mxgraph.networks.firewall;" vertex="1" parent="7mqrDgHlRomL16Z5-wrn-1">
          <mxGeometry x="848" y="190" width="30" height="30" as="geometry" />
        </mxCell>
        <mxCell id="7mqrDgHlRomL16Z5-wrn-169" value="" style="fontColor=#0066CC;verticalAlign=top;verticalLabelPosition=bottom;labelPosition=center;align=center;html=1;outlineConnect=0;fillColor=#CCCCCC;strokeColor=#6881B3;gradientColor=none;gradientDirection=north;strokeWidth=2;shape=mxgraph.networks.firewall;" vertex="1" parent="7mqrDgHlRomL16Z5-wrn-1">
          <mxGeometry x="878" y="190" width="30" height="30" as="geometry" />
        </mxCell>
        <mxCell id="7mqrDgHlRomL16Z5-wrn-170" value="" style="fontColor=#0066CC;verticalAlign=top;verticalLabelPosition=bottom;labelPosition=center;align=center;html=1;outlineConnect=0;fillColor=#CCCCCC;strokeColor=#6881B3;gradientColor=none;gradientDirection=north;strokeWidth=2;shape=mxgraph.networks.firewall;" vertex="1" parent="7mqrDgHlRomL16Z5-wrn-1">
          <mxGeometry x="908" y="190" width="30" height="30" as="geometry" />
        </mxCell>
        <mxCell id="7mqrDgHlRomL16Z5-wrn-171" value="" style="fontColor=#0066CC;verticalAlign=top;verticalLabelPosition=bottom;labelPosition=center;align=center;html=1;outlineConnect=0;fillColor=#CCCCCC;strokeColor=#6881B3;gradientColor=none;gradientDirection=north;strokeWidth=2;shape=mxgraph.networks.firewall;" vertex="1" parent="7mqrDgHlRomL16Z5-wrn-1">
          <mxGeometry x="580" y="190" width="30" height="30" as="geometry" />
        </mxCell>
        <mxCell id="7mqrDgHlRomL16Z5-wrn-172" value="InternalNG&lt;br&gt;Proxy,LB" style="text;html=1;align=center;verticalAlign=middle;resizable=0;points=[];autosize=1;strokeColor=none;" vertex="1" parent="7mqrDgHlRomL16Z5-wrn-1">
          <mxGeometry x="505" y="351" width="70" height="30" as="geometry" />
        </mxCell>
      </root>
    </mxGraphModel>
  </diagram>
</mxfile>
